<svg width="567" height="161" viewBox="0 0 567 161" version="1.1" xmlns="http://www.w3.org/2000/svg" xmlns:xlink="http://www.w3.org/1999/xlink" xmlns:figma="http://www.figma.com/figma/ns">
<title>kf-brand</title>
<desc>Created using Figma</desc>
<g id="Canvas" transform="translate(286 147)" figma:type="canvas">
<g id="kf-brand" style="mix-blend-mode:normal;" figma:type="frame">
<g id="Vector" style="mix-blend-mode:normal;" figma:type="vector">
<use xlink:href="#path0_fill" transform="translate(-286 -147)" fill="#010101" style="mix-blend-mode:normal;"/>
</g>
<g id="Vector" style="mix-blend-mode:normal;" figma:type="vector">
<use xlink:href="#path1_fill" transform="translate(-247.09 -112.67)" fill="#FFFFFF" style="mix-blend-mode:normal;"/>
</g>
<g id="Vector" style="mix-blend-mode:normal;" figma:type="vector">
<use xlink:href="#path2_fill" transform="translate(-83.89 -118.52)" fill="#010101" style="mix-blend-mode:normal;"/>
</g>
<g id="Vector" style="mix-blend-mode:normal;" figma:type="vector">
<use xlink:href="#path3_fill" transform="translate(-43.65 -118.52)" fill="#010101" style="mix-blend-mode:normal;"/>
</g>
<g id="Vector" style="mix-blend-mode:normal;" figma:type="vector">
<use xlink:href="#path4_fill" transform="translate(-2.30002 -118.52)" fill="#010101" style="mix-blend-mode:normal;"/>
</g>
<g id="Vector" style="mix-blend-mode:normal;" figma:type="vector">
<use xlink:href="#path5_fill" transform="translate(21.08 -119.25)" fill="#010101" style="mix-blend-mode:normal;"/>
</g>
<g id="Vector" style="mix-blend-mode:normal;" figma:type="vector">
<use xlink:href="#path6_fill" transform="translate(63.55 -118.52)" fill="#010101" style="mix-blend-mode:normal;"/>
</g>
<g id="Vector" style="mix-blend-mode:normal;" figma:type="vector">
<use xlink:href="#path7_fill" transform="translate(102.24 -118.49)" fill="#010101" style="mix-blend-mode:normal;"/>
</g>
<g id="Vector" style="mix-blend-mode:normal;" figma:type="vector">
<use xlink:href="#path8_fill" transform="translate(-83.9 -51.68)" fill="#010101" style="mix-blend-mode:normal;"/>
</g>
<g id="Vector" style="mix-blend-mode:normal;" figma:type="vector">
<use xlink:href="#path9_fill" transform="translate(-54.09 -52.4)" fill="#010101" style="mix-blend-mode:normal;"/>
</g>
<g id="Vector" style="mix-blend-mode:normal;" figma:type="vector">
<use xlink:href="#path10_fill" transform="translate(-12.16 -51.68)" fill="#010101" style="mix-blend-mode:normal;"/>
</g>
<g id="Vector" style="mix-blend-mode:normal;" figma:type="vector">
<use xlink:href="#path11_fill" transform="translate(29.69 -51.68)" fill="#010101" style="mix-blend-mode:normal;"/>
</g>
<g id="Vector" style="mix-blend-mode:normal;" figma:type="vector">
<use xlink:href="#path12_fill" transform="translate(72.12 -51.68)" fill="#010101" style="mix-blend-mode:normal;"/>
</g>
<g id="Vector" style="mix-blend-mode:normal;" figma:type="vector">
<use xlink:href="#path13_fill" transform="translate(106.25 -51.68)" fill="#010101" style="mix-blend-mode:normal;"/>
</g>
<g id="Vector" style="mix-blend-mode:normal;" figma:type="vector">
<use xlink:href="#path14_fill" transform="translate(144.82 -51.68)" fill="#010101" style="mix-blend-mode:normal;"/>
</g>
<g id="Vector" style="mix-blend-mode:normal;" figma:type="vector">
<use xlink:href="#path15_fill" transform="translate(182.41 -51.68)" fill="#010101" style="mix-blend-mode:normal;"/>
</g>
<g id="Vector" style="mix-blend-mode:normal;" figma:type="vector">
<use xlink:href="#path16_fill" transform="translate(205.92 -52.4)" fill="#010101" style="mix-blend-mode:normal;"/>
</g>
<g id="Vector" style="mix-blend-mode:normal;" figma:type="vector">
<use xlink:href="#path17_fill" transform="translate(247.81 -51.68)" fill="#010101" style="mix-blend-mode:normal;"/>
</g>
</g>
</g>
<defs>
<path id="path0_fill" d="M 160.21 0L 0 0L 0 160.21L 160.21 160.21L 160.21 0Z"/>
<path id="path1_fill" d="M 50.35 18.31L 50.35 36.62L 89.26 36.62L 89.26 54.93L 50.35 54.93L 50.35 91.55L 20.74 45.78L 50.35 -3.35693e-06L 93.84 -3.35693e-06L 93.84 18.31L 50.35 18.31ZM 6.10352e-07 56.2L 6.10352e-07 91.55L 22.87 91.55L 6.10352e-07 56.2ZM 22.87 -3.35693e-06L 6.10352e-07 -3.35693e-06L 6.10352e-07 35.35L 22.87 -3.35693e-06Z"/>
<path id="path2_fill" d="M 8.98999 17.04L 22.99 0.0399991L 32.99 0.0399991L 18.84 16.8L 34.21 40.92L 23.75 40.92L 12.84 24L 9 28.57L 9 40.88L -2.44141e-06 40.88L -2.44141e-06 -1.83105e-06L 9 -1.83105e-06L 8.98999 17.04Z"/>
<path id="path3_fill" d="M 22.5 40.88L 8.36 13.53L 8.36 40.88L -1.2207e-05 40.88L -1.2207e-05 -1.83105e-06L 10.58 -1.83105e-06L 24.2 27.74L 24.2 -1.83105e-06L 32.55 -1.83105e-06L 32.55 40.88L 22.5 40.88Z"/>
<path id="path4_fill" d="M 13.09 35.09L 17.21 35.09L 17.21 40.88L -6.10352e-06 40.88L -6.10352e-06 35.09L 4.11999 35.09L 4.11999 5.79L -6.10352e-06 5.79L -6.10352e-06 -1.83105e-06L 17.21 -1.83105e-06L 17.21 5.79L 13.09 5.79L 13.09 35.09Z"/>
<path id="path5_fill" d="M 18.21 20.84L 33.08 20.84L 33.08 42.28L 27.4 42.28L 26.51 37.49C 25.2859 39.024 23.7239 40.2544 21.9459 41.0852C 20.1679 41.9161 18.222 42.325 16.26 42.28C 6.01001 42.28 -1.2207e-06 35.28 -1.2207e-06 22.06C -1.2207e-06 6.46 7.58 2.44141e-06 18 2.44141e-06C 27 2.44141e-06 32.15 5.29 32.2 14.93L 23.34 15.6C 23.23 8.86 20.61 7.14 17.34 7.14C 13 7.14 9.48999 10.54 9.48999 21.68C 9.48999 31.68 12.78 35.22 17.68 35.22C 21.47 35.22 24.92 32.82 25.14 27.37L 18.14 27.37L 18.21 20.84Z"/>
<path id="path6_fill" d="M 32 40.88L 22.92 40.88L 22.92 24.33L 9 24.33L 9 40.93L 0 40.93L 0 -1.83105e-06L 9 -1.83105e-06L 9 16.88L 22.92 16.88L 22.92 -1.83105e-06L 32 -1.83105e-06L 32 40.88Z"/>
<path id="path7_fill" d="M 10.8 7.3L 2.44141e-06 7.3L 2.44141e-06 -3.05176e-06L 30.69 -3.05176e-06L 30.69 7.3L 19.88 7.3L 19.88 40.89L 10.8 40.89L 10.8 7.3Z"/>
<path id="path8_fill" d="M 22.15 24.62L 8.99999 24.62L 8.99999 40.88L -1.2207e-05 40.88L -1.2207e-05 -5.49316e-06L 24.12 -5.49316e-06L 24.12 7.3L 8.99999 7.3L 8.99999 17.55L 22.15 17.55L 22.15 24.62Z"/>
<path id="path9_fill" d="M -1.46484e-05 21.33C -1.46484e-05 7.73999 6.99999 -6.71387e-06 18.1 -6.71387e-06C 29.46 -6.71387e-06 34.97 7.57 34.97 20.66C 34.97 34.42 28.97 42.27 17.26 42.27C 5.54999 42.27 -1.46484e-05 34.64 -1.46484e-05 21.33ZM 25.51 20.83C 25.51 11.36 23.06 7.24 17.83 7.24C 12.76 7.24 9.48 11.31 9.48 21.05C 9.48 30.79 11.97 35.21 17.54 35.21C 22.95 35.21 25.51 30.96 25.51 20.83Z"/>
<path id="path10_fill" d="M 23.23 -5.49316e-06L 32.14 -5.49316e-06L 32.14 26.23C 32.14 35.98 26.9 41.55 15.82 41.55C 4.06999 41.55 8.54492e-06 35.65 8.54492e-06 25.9L 8.54492e-06 -5.49316e-06L 8.85999 -5.49316e-06L 8.85999 23.49C 8.85999 30.62 10.25 34.35 16.1 34.35C 21.95 34.35 23.23 30.9 23.23 23.54L 23.23 -5.49316e-06Z"/>
<path id="path11_fill" d="M 22.49 40.88L 8.34999 13.49L 8.34999 40.84L 1.46484e-05 40.84L 1.46484e-05 -5.49316e-06L 10.58 -5.49316e-06L 24.17 27.74L 24.17 -5.49316e-06L 32.52 -5.49316e-06L 32.52 40.88L 22.49 40.88Z"/>
<path id="path12_fill" d="M 7.32422e-06 40.88L 7.32422e-06 -5.49316e-06L 10 -5.49316e-06C 25.48 -5.49316e-06 31.45 6.79999 31.45 19.61C 31.45 33.81 25.45 40.89 9.9 40.89L 7.32422e-06 40.88ZM 11.2 33.49C 18.38 33.49 22.2 30.15 22.2 20.12C 22.2 10.48 18.75 7.24999 11.2 7.24999L 9.03001 7.24999L 9.03001 33.49L 11.2 33.49Z"/>
<path id="path13_fill" d="M 24.75 -5.49316e-06L 38.51 40.88L 29.3 40.88L 26.14 31.49L 12 31.49L 9.00001 40.9L 1.2207e-05 40.9L 13.48 0.0199988L 24.75 -5.49316e-06ZM 19.01 8.3L 18.9 8.3L 13.9 24.56L 24.2 24.56L 19.01 8.3Z"/>
<path id="path14_fill" d="M 10.8 7.3L -1.09863e-05 7.3L -1.09863e-05 -5.49316e-06L 30.73 -5.49316e-06L 30.73 7.3L 19.88 7.3L 19.88 40.89L 10.8 40.89L 10.8 7.3Z"/>
<path id="path15_fill" d="M 13.14 35.09L 17.26 35.09L 17.26 40.88L -1.46484e-05 40.88L -1.46484e-05 35.09L 4.14 35.09L 4.14 5.79L 0.0200049 5.79L 0.0200049 -5.49316e-06L 17.23 -5.49316e-06L 17.23 5.79L 13.14 5.79L 13.14 35.09Z"/>
<path id="path16_fill" d="M -4.88281e-06 21.33C -4.88281e-06 7.73999 6.99997 -6.71387e-06 18.1 -6.71387e-06C 29.46 -6.71387e-06 34.97 7.57 34.97 20.66C 34.97 34.42 28.97 42.27 17.26 42.27C 5.55 42.27 -4.88281e-06 34.64 -4.88281e-06 21.33ZM 25.51 20.83C 25.51 11.36 23.06 7.24 17.83 7.24C 12.76 7.24 9.47998 11.31 9.47998 21.05C 9.47998 30.79 11.97 35.21 17.54 35.21C 22.95 35.21 25.51 30.96 25.51 20.83Z"/>
<path id="path17_fill" d="M 22.5 40.88L 8.34999 13.49L 8.34999 40.84L 9.76562e-06 40.84L 9.76562e-06 -5.49316e-06L 10.58 -5.49316e-06L 24.17 27.74L 24.17 -5.49316e-06L 32.52 -5.49316e-06L 32.52 40.88L 22.5 40.88Z"/>
</defs>
</svg>
